<svg width="32" height="32" viewBox="0 0 32 32" fill="none" xmlns="http://www.w3.org/2000/svg">
  <g transform="translate(16 16) scale(1.075) translate(-16 -16)">
    <g transform="translate(-72 -4)">
      <path
        fill-rule="evenodd"
        clip-rule="evenodd"
        d="M97.9111 9.38963L88.6282 22.5001L84.9642 19.9627C84.3601 19.5453 83.6302 19.894 83.7639 20.5366L85.7186 29.9348C85.8145 30.3914 86.3165 30.7401 86.7835 30.6722L96.3829 29.274C97.0389 29.1783 97.1215 28.3809 96.5183 27.9627L92.8533 25.4253L101.272 13.5366C103.633 17.9966 103.456 23.5722 100.335 27.9801C95.8782 34.2757 87.1053 35.8044 80.7408 31.3975C74.3755 26.9896 72.8288 18.3148 77.2851 12.0201C81.7424 5.72615 90.5153 4.19659 96.8797 8.60354C97.2393 8.85224 97.5831 9.11485 97.9111 9.38963Z"
        fill="#FFFFFF"
      />
      <path
        fill-rule="evenodd"
        clip-rule="evenodd"
        d="M92.792 10.0522C92.697 9.59481 92.194 9.24612 91.7271 9.31481L82.1277 10.7122C81.4717 10.8079 81.3891 11.6061 81.9932 12.0235L85.6572 14.5609L76.7797 27.0983C77.7112 28.5989 78.9072 29.9222 80.311 31.0052L89.8823 17.487L93.5464 20.0244C94.1505 20.4418 94.8803 20.0922 94.7467 19.4505L92.792 10.0522Z"
        fill="#2D74FF"
      />
    </g>
  </g>
</svg>
