<svg width="160" height="159" viewBox="0 0 160 159.1482239" xmlns="http://www.w3.org/2000/svg" fill="none">
  <path
    d="M159.7634583,79.5658264c0.0060272-4.7797089-0.4224701-9.5503922-1.2799835-14.253334l-17.2036438,12.6216278c0,0.5439072,0,1.0877991,0,1.6317062c0.0170593,13.6943741-4.5694733,26.9998856-13.0275421,37.7936325c-8.4580688,10.7937241-20.300972,18.4545212-33.6386032,21.7595596c-13.3376312,3.305069-27.4018021,2.0637207-39.9491653-3.5253143c-12.5472145-5.5890503-22.854351-15.2036514-29.2771549-27.3109818c-6.4227562-12.1068268-8.5910358-26.0084305-6.1589336-39.4865494s9.324501-25.7563972,19.5775452-34.87603C49.0589218,24.80056,62.0819511,19.365057,75.7974014,18.4809151c13.7149506-0.8841896,27.3325577,2.8338566,38.6797333,10.5609722l15.5282822-11.4025631C115.907135,6.3077574,98.3617859,0.0880474,80.2484665,0.0009278c-18.113327-0.0871193-35.7182808,5.9635286-49.9256477,17.1589718C16.1154995,28.3553371,6.1497583,44.0304413,2.0611641,61.6125565c-4.0885744,17.5824661-2.0570967,36.0269547,5.7610407,52.307373s20.9584713,29.4288864,37.264431,37.2878494c16.3059082,7.8589783,34.8090935,9.9613495,52.4718437,5.9623566c17.6632538-3.9989777,33.4374008-13.861969,44.7338943-27.9702911s17.4434814-31.6235504,17.4334412-49.6716537L159.7634583,79.5658264z"
    fill="#BEC8D7"
  />
  <path
    d="M143.0916748,30.8990307c3.803299,4.8851261,7.0185394,10.1975536,9.5804901,15.8285885l-72.7854614,53.4497643L49.4698601,81.1789627V58.3175392l30.4168434,18.9984169L143.0916748,30.8990307z"
    fill="#BEC8D7"
  />
</svg>
