<svg xmlns="http://www.w3.org/2000/svg" viewBox="0 0 24 24" fill="none">
  <path
    fill="#0A66C2"
    d="M22.23 0H1.77C0.79 0 0 0.77 0 1.72v20.56C0 23.23 0.79 24 1.77 24h20.46c0.98 0 1.77-0.77 1.77-1.72V1.72C24 0.77 23.21 0 22.23 0ZM7.12 20.45H3.56V9h3.56v11.45ZM5.34 7.43a2.06 2.06 0 1 1 0-4.13 2.06 2.06 0 0 1 0 4.13ZM20.45 20.45h-3.56v-5.57c0-1.33-0.03-3.03-1.85-3.03-1.86 0-2.14 1.44-2.14 2.93v5.67H9.34V9h3.41v1.56h0.05c0.47-0.9 1.64-1.85 3.37-1.85 3.6 0 4.28 2.37 4.28 5.45v6.29Z"
  />
</svg>
